<?xml version="1.0" encoding="UTF-8"?>
<svg xmlns="http://www.w3.org/2000/svg" width="960" height="300" viewBox="0 0 960 300" role="img" aria-label="Markdown Reader 图片预览示例">
  <rect width="960" height="300" rx="18" fill="#f8fafc"/>
  <rect x="1" y="1" width="958" height="298" rx="17" fill="none" stroke="#d9dee8"/>
  <rect x="52" y="58" width="245" height="184" rx="14" fill="#ffffff" stroke="#d9dee8"/>
  <text x="82" y="96" fill="#101827" font-family="-apple-system,BlinkMacSystemFont,Segoe UI,sans-serif" font-size="22" font-weight="700">产品介绍.md</text>
  <rect x="82" y="120" width="144" height="10" rx="5" fill="#cbd5e1"/>
  <rect x="82" y="146" width="180" height="10" rx="5" fill="#e2e8f0"/>
  <rect x="82" y="172" width="128" height="10" rx="5" fill="#e2e8f0"/>
  <rect x="82" y="200" width="150" height="28" rx="7" fill="#e8f0ff"/>
  <text x="100" y="219" fill="#0f62fe" font-family="-apple-system,BlinkMacSystemFont,Segoe UI,sans-serif" font-size="14" font-weight="700">含图片与目录</text>
  <path d="M334 150h122" stroke="#94a3b8" stroke-width="6" stroke-linecap="round"/>
  <path d="M440 125l35 25-35 25" fill="none" stroke="#94a3b8" stroke-width="6" stroke-linecap="round" stroke-linejoin="round"/>
  <rect x="504" y="38" width="382" height="224" rx="16" fill="#ffffff" stroke="#d9dee8"/>
  <rect x="534" y="72" width="95" height="138" rx="10" fill="#f8fafc" stroke="#d9dee8"/>
  <text x="556" y="102" fill="#667085" font-family="-apple-system,BlinkMacSystemFont,Segoe UI,sans-serif" font-size="13" font-weight="700">目录</text>
  <rect x="556" y="122" width="50" height="7" rx="3.5" fill="#0f62fe" opacity=".24"/>
  <rect x="556" y="142" width="40" height="7" rx="3.5" fill="#cbd5e1"/>
  <rect x="568" y="162" width="34" height="7" rx="3.5" fill="#e2e8f0"/>
  <rect x="556" y="182" width="46" height="7" rx="3.5" fill="#cbd5e1"/>
  <rect x="650" y="72" width="202" height="138" rx="10" fill="#ffffff" stroke="#d9dee8"/>
  <text x="674" y="106" fill="#101827" font-family="-apple-system,BlinkMacSystemFont,Segoe UI,sans-serif" font-size="20" font-weight="750">渲染后的阅读页</text>
  <rect x="674" y="124" width="126" height="8" rx="4" fill="#cbd5e1"/>
  <rect x="674" y="143" width="154" height="8" rx="4" fill="#e2e8f0"/>
  <rect x="674" y="165" width="68" height="32" rx="7" fill="#e8f0ff"/>
  <rect x="754" y="165" width="68" height="32" rx="7" fill="#ecfdf3"/>
  <text x="685" y="186" fill="#0f62fe" font-family="-apple-system,BlinkMacSystemFont,Segoe UI,sans-serif" font-size="13" font-weight="700">图片</text>
  <text x="765" y="186" fill="#15803d" font-family="-apple-system,BlinkMacSystemFont,Segoe UI,sans-serif" font-size="13" font-weight="700">目录</text>
</svg>